<svg id="visual" viewBox="0 0 960 540" width="960" height="540" xmlns="http://www.w3.org/2000/svg" xmlns:xlink="http://www.w3.org/1999/xlink" version="1.1"><rect x="0" y="0" width="960" height="540" fill="#fff"></rect><path d="M0 320L22.8 321.3C45.7 322.7 91.3 325.3 137 331.3C182.7 337.3 228.3 346.7 274 352.8C319.7 359 365.3 362 411.2 362.5C457 363 503 361 548.8 357.2C594.7 353.3 640.3 347.7 686 350.7C731.7 353.7 777.3 365.3 823 369.5C868.7 373.7 914.3 370.3 937.2 368.7L960 367L960 541L937.2 541C914.3 541 868.7 541 823 541C777.3 541 731.7 541 686 541C640.3 541 594.7 541 548.8 541C503 541 457 541 411.2 541C365.3 541 319.7 541 274 541C228.3 541 182.7 541 137 541C91.3 541 45.7 541 22.8 541L0 541Z" fill="#fa7268"></path><path d="M0 406L22.8 403.8C45.7 401.7 91.3 397.3 137 402C182.7 406.7 228.3 420.3 274 423.7C319.7 427 365.3 420 411.2 411.2C457 402.3 503 391.7 548.8 391.2C594.7 390.7 640.3 400.3 686 408.3C731.7 416.3 777.3 422.7 823 417.2C868.7 411.7 914.3 394.3 937.2 385.7L960 377L960 541L937.2 541C914.3 541 868.7 541 823 541C777.3 541 731.7 541 686 541C640.3 541 594.7 541 548.8 541C503 541 457 541 411.2 541C365.3 541 319.7 541 274 541C228.3 541 182.7 541 137 541C91.3 541 45.7 541 22.8 541L0 541Z" fill="#f8566e"></path><path d="M0 445L22.8 444.3C45.7 443.7 91.3 442.3 137 437.8C182.7 433.3 228.3 425.7 274 427.7C319.7 429.7 365.3 441.3 411.2 447.7C457 454 503 455 548.8 449.5C594.7 444 640.3 432 686 425.3C731.7 418.7 777.3 417.3 823 425C868.7 432.7 914.3 449.3 937.2 457.7L960 466L960 541L937.2 541C914.3 541 868.7 541 823 541C777.3 541 731.7 541 686 541C640.3 541 594.7 541 548.8 541C503 541 457 541 411.2 541C365.3 541 319.7 541 274 541C228.3 541 182.7 541 137 541C91.3 541 45.7 541 22.8 541L0 541Z" fill="#f3367a"></path><path d="M0 501L22.8 502.2C45.7 503.3 91.3 505.7 137 501.3C182.7 497 228.3 486 274 481.3C319.7 476.7 365.3 478.3 411.2 476.3C457 474.3 503 468.7 548.8 471.3C594.7 474 640.3 485 686 486C731.7 487 777.3 478 823 475.2C868.7 472.3 914.3 475.7 937.2 477.3L960 479L960 541L937.2 541C914.3 541 868.7 541 823 541C777.3 541 731.7 541 686 541C640.3 541 594.7 541 548.8 541C503 541 457 541 411.2 541C365.3 541 319.7 541 274 541C228.3 541 182.7 541 137 541C91.3 541 45.7 541 22.8 541L0 541Z" fill="#e7008a"></path></svg>